<?xml version="1.0" encoding="utf-8"?>
<!-- Generator: Adobe Illustrator 24.1.2, SVG Export Plug-In . SVG Version: 6.00 Build 0)  -->
<svg version="1.1" id="Layer_1" xmlns="http://www.w3.org/2000/svg" xmlns:xlink="http://www.w3.org/1999/xlink" x="0px" y="0px"
	 viewBox="0 0 731 732" style="enable-background:new 0 0 731 732;" xml:space="preserve">
<style type="text/css">
	.st0{fill:#FFFFFF;stroke:#800080;stroke-width:25;stroke-miterlimit:10;}
	.st1{fill:#800080;}
</style>
<circle class="st0" cx="366.2" cy="366" r="346.1"/>
<path class="st1" d="M474.4,521.7c28.3-4.6,56.6-34.1,56.6-70.1V188.1c0-37.2-31.3-71.3-73.8-71.3l-90.6-0.1l-91.3,0.1
	c-42.5,0-73.8,34.1-73.8,71.3v263.4c0,36,28.2,65.6,56.5,70.1l-85,127.5h49.1l60.8-89.1h83.2h0.1h0.1h83.2l60.8,89.1h49.1
	L474.4,521.7z M318.4,143.9c0-6.5,5.6-11.9,12.1-11.9h35.7h0.1h0.1H402c6.5,0,12.1,5.4,12.1,11.9v20.9c0,6.5-5.3,12-12.1,12h-35.7
	h-0.1h-0.1h-35.7c-6.8,0-12.1-5.6-12.1-12L318.4,143.9z M273.8,483.2c-17.9,0-32.3-14.5-32.3-32.3c0-17.9,14.5-32.3,32.3-32.3
	c17.9,0,32.4,14.5,32.4,32.3C306.2,468.8,291.6,483.2,273.8,483.2z M366.3,312.1L366.3,312.1h-88.5c-20.3,0-37-14-36.8-36.8V228
	c0-19.7,12.7-36.9,36.8-36.9h88.4h0.1h88.4c24,0,36.8,17.2,36.8,36.9v47.4c0.2,22.8-16.4,36.8-36.8,36.8h-88.4V312.1z M425.6,450.9
	c0-17.9,14.5-32.3,32.3-32.3c17.9,0,32.3,14.5,32.3,32.3c0,17.9-14.5,32.3-32.3,32.3C440.1,483.2,425.6,468.8,425.6,450.9z"/>
</svg>
